<svg viewBox="0 0 20.00 20.00" xmlns="http://www.w3.org/2000/svg" fill="#000000"><g id="SVGRepo_bgCarrier" stroke-width="0"></g><g id="SVGRepo_tracerCarrier" stroke-linecap="round" stroke-linejoin="round"></g><g id="SVGRepo_iconCarrier"><path d="M7 2a2 2 0 10.001 4.001A2 2 0 007 2zm0 6a2 2 0 10.001 4.001A2 2 0 007 8zm0 6a2 2 0 10.001 4.001A2 2 0 007 14zm6-8a2 2 0 10-.001-4.001A2 2 0 0013 6zm0 2a2 2 0 10.001 4.001A2 2 0 0013 8zm0 6a2 2 0 10.001 4.001A2 2 0 0013 14z" fill="#5C5F62"></path></g></svg>